<svg xmlns="http://www.w3.org/2000/svg" width="24" height="24" viewBox="0 0 24 24" fill="none">
<path d="M20.9363 18.6928H20.5237C20.4298 18.5151 20.2541 18.3879 20.0467 18.3602V16.1068C20.0467 15.9652 19.9994 15.8277 19.9124 15.7161L19.4567 15.1315L19.6686 15.0376C19.8985 14.9358 20.0467 14.708 20.0467 14.4567V5.63924C20.2541 5.61154 20.4297 5.48433 20.5237 5.30666H20.9363C21.9874 5.30666 22.8425 4.45152 22.8425 3.40041C22.8425 2.34931 21.9874 1.49416 20.9363 1.49416H20.5237C20.4172 1.29269 20.2057 1.15527 19.9619 1.15527H4.03784C3.79406 1.15527 3.58263 1.29269 3.47605 1.49416H3.06354C2.01243 1.49416 1.15729 2.34931 1.15729 3.40041C1.15729 4.45152 2.01243 5.30666 3.06354 5.30666H3.47605C3.56916 5.48268 3.74255 5.60912 3.94745 5.63839V7.25528C3.94745 7.5441 4.14222 7.79657 4.42155 7.86989L5.02266 8.02765L4.11227 9.0311C4.0062 9.14802 3.94745 9.30022 3.94745 9.45806V18.3611C3.74255 18.3904 3.56916 18.5168 3.47605 18.6928H3.06354C2.01243 18.6928 1.15729 19.548 1.15729 20.5991C1.15729 21.6502 2.01243 22.5053 3.06354 22.5053H3.47605C3.58263 22.7068 3.79406 22.8442 4.03784 22.8442H19.9619C20.2057 22.8442 20.4172 22.7068 20.5237 22.5053H20.9363C21.9874 22.5053 22.8425 21.6502 22.8425 20.5991C22.8425 19.548 21.9874 18.6928 20.9363 18.6928ZM5.21828 18.3539V9.70333L6.66767 8.10585C6.8169 7.94136 6.86943 7.71091 6.80623 7.49801C6.74298 7.2851 6.5732 7.12065 6.35839 7.06427L5.21828 6.76512V5.64555H18.7758V14.0432L18.1978 14.2993C18.0188 14.3786 17.8865 14.5359 17.8389 14.7257C17.7912 14.9154 17.8337 15.1166 17.954 15.2709L18.7758 16.3252V18.3539H5.21828ZM21.5717 3.40041C21.5717 3.75078 21.2866 4.03583 20.9363 4.03583H20.5974V2.765H20.9363C21.2866 2.765 21.5717 3.05004 21.5717 3.40041ZM19.3265 4.37472H4.67326V2.44263C4.6764 2.43712 4.67953 2.4317 4.6825 2.42611H19.3265V4.37472H19.3265ZM2.42816 3.40041C2.42816 3.05004 2.71321 2.765 3.06358 2.765H3.40247V4.03583H3.06358C2.71321 4.03583 2.42816 3.75078 2.42816 3.40041ZM2.42816 20.599C2.42816 20.2487 2.71321 19.9636 3.06358 19.9636H3.40247V21.2345H3.06358C2.71321 21.2345 2.42816 20.9494 2.42816 20.599ZM19.3265 21.5733H4.67326V19.6247H19.3265V21.5733ZM20.9363 21.2345H20.5974V19.9636H20.9363C21.2866 19.9636 21.5717 20.2487 21.5717 20.599C21.5717 20.9494 21.2866 21.2345 20.9363 21.2345Z" fill="currentColor"/>
</svg>