<svg xmlns="http://www.w3.org/2000/svg" width="24" height="24" viewBox="0 0 24 24" fill="none">
<path d="M12.6557 3.45697V1.46528C12.6557 1.10315 12.3621 0.80957 12 0.80957C11.6379 0.80957 11.3443 1.10315 11.3443 1.46528V3.45697C6.83722 3.79335 3.27283 7.56796 3.27283 12.1596V22.5354C3.27283 22.8975 3.56641 23.1911 3.92854 23.1911H10.6883C11.0504 23.1911 11.344 22.8975 11.344 22.5354V16.3785C11.344 16.0163 11.0504 15.7228 10.6883 15.7228H8.81492C8.1795 15.7228 7.66258 15.2058 7.66258 14.5705C7.66258 13.9351 8.1795 13.4182 8.81492 13.4182H15.1851C15.8206 13.4182 16.3375 13.9351 16.3375 14.5705C16.3375 15.2058 15.8206 15.7228 15.1851 15.7228H13.3118C12.9496 15.7228 12.6561 16.0163 12.6561 16.3785V22.5354C12.6561 22.8975 12.9496 23.1911 13.3118 23.1911H20.0715C20.4337 23.1911 20.7272 22.8975 20.7272 22.5354V12.1596C20.7272 7.56796 17.1628 3.79335 12.6557 3.45697ZM6.35112 14.5705C6.35112 15.929 7.45634 17.0342 8.81488 17.0342H10.0325V21.8797H4.58425V12.1596C4.58425 8.29152 7.5613 5.10621 11.3443 4.77316V12.1067H8.81492C7.45638 12.1067 6.35112 13.212 6.35112 14.5705ZM19.4158 21.8797H13.9674V17.0342H15.1851C16.5436 17.0342 17.6489 15.929 17.6489 14.5705C17.6489 13.212 16.5436 12.1067 15.1851 12.1067H12.6557V4.77316C16.4387 5.10621 19.4158 8.29152 19.4158 12.1596V21.8797Z" fill="currentColor"/>
</svg>