<svg xmlns="http://www.w3.org/2000/svg" width="24" height="24" viewBox="0 0 24 24" fill="none">
<path d="M20.5279 18.6385H19.3928C18.9454 18.2493 18.6825 17.6526 18.6825 17.0039C18.6825 16.3552 18.9454 15.7585 19.3928 15.3693H20.2546C20.6109 15.3693 20.8997 15.0805 20.8997 14.7242V11.3851C20.8997 11.0289 20.6109 10.74 20.2546 10.74H18.9018L19.7468 9.03266C19.7909 8.94368 19.8138 8.84576 19.8138 8.7465V8.45625H21.0647C22.1318 8.45625 23 7.58807 23 6.52095V6.48211C23 5.41499 22.1318 4.54681 21.0647 4.54681H19.8138V4.26783C19.8138 4.16892 19.791 4.07138 19.7473 3.98265L18.4509 1.35211C18.3423 1.13174 18.118 0.992188 17.8723 0.992188H16.0425C15.7969 0.992188 15.5725 1.13174 15.4639 1.35211L14.1675 3.98261C14.1237 4.07129 14.101 4.16887 14.101 4.26779V4.54677H2.93124C1.86411 4.54677 0.995939 5.41495 0.995939 6.48207V6.5209C0.995939 7.58803 1.86411 8.4562 2.93124 8.4562H14.101V8.74645C14.101 8.84576 14.124 8.94364 14.168 9.03262L15.0131 10.74H1.63674C1.28047 10.74 0.991638 11.0288 0.991638 11.3851C0.991638 13.582 2.77895 15.3693 4.97582 15.3693H8.56721C9.01461 15.7585 9.27747 16.3552 9.27747 17.0039C9.27747 17.6526 9.01461 18.2493 8.56721 18.6385H4.50364C4.14738 18.6385 3.85854 18.9273 3.85854 19.2836V22.3631C3.85854 22.7193 4.14738 23.0082 4.50364 23.0082H20.5279C20.8842 23.0082 21.173 22.7193 21.173 22.3631V19.2836C21.173 18.9272 20.8841 18.6385 20.5279 18.6385ZM18.5236 8.1014H15.3912V4.91289H18.5236V8.1014ZM18.1296 9.3916L17.4718 10.7206H16.4431L15.7852 9.3916H18.1296ZM21.0646 5.83697C21.4203 5.83697 21.7097 6.12636 21.7097 6.48207V6.5209C21.7097 6.87661 21.4203 7.166 21.0646 7.166H19.8137V5.83697H21.0646ZM16.4438 2.28239H17.471L18.1315 3.62269H15.7833L16.4438 2.28239ZM2.93124 7.16605C2.57553 7.16605 2.28614 6.87666 2.28614 6.52095V6.48211C2.28614 6.1264 2.57553 5.83701 2.93124 5.83701H14.101V7.16605H2.93124ZM2.35989 12.0302H19.6095V14.0791H4.97582C3.71267 14.0791 2.64976 13.2051 2.35989 12.0302ZM10.1753 15.3693H17.7847C17.531 15.8605 17.3923 16.4206 17.3923 17.0039C17.3923 17.5872 17.531 18.1473 17.7846 18.6385H10.1753C10.429 18.1473 10.5676 17.5872 10.5676 17.0039C10.5677 16.4206 10.429 15.8605 10.1753 15.3693ZM19.8828 21.718H5.1487V19.9287H19.8828V21.718Z" fill="currentColor"/>
</svg>