<svg xmlns="http://www.w3.org/2000/svg" width="24" height="24" viewBox="0 0 24 24" fill="none">
<path d="M21.0664 3.36324C20.2387 3.36324 19.531 3.88617 19.2558 4.61887L12.6461 2.02167V1.64453C12.6461 1.28858 12.3575 1 12.0016 1C11.6456 1 11.3571 1.28858 11.3571 1.64453V2.02167L4.74464 4.61999C4.46968 3.88668 3.76173 3.36324 2.93359 3.36324C1.86741 3.36324 1 4.23065 1 5.29683C1 6.36302 1.86741 7.23043 2.93359 7.23043C3.77432 7.23043 4.49104 6.69095 4.75676 5.94012C4.766 5.9405 5.94467 5.94136 5.94467 5.94136V16.8089V17.2238C5.94467 17.4443 6.05746 17.6496 6.24365 17.7678L8.21974 19.0229C8.21987 19.023 8.22004 19.0231 8.22021 19.0232L11.3571 21.0154V22.3555C11.3571 22.7114 11.6457 23 12.0016 23C12.3576 23 12.6462 22.7114 12.6462 22.3555V21.0154L15.7828 19.0233C15.7831 19.0232 15.7833 19.0231 15.7835 19.0229L17.7596 17.7678C17.9458 17.6496 18.0586 17.4443 18.0586 17.2238V16.8089V5.94136C18.0586 5.94136 19.2351 5.94059 19.2433 5.94029C19.5091 6.69104 20.2258 7.23043 21.0664 7.23043C22.1326 7.23043 23 6.36302 23 5.29683C23 4.23065 22.1326 3.36324 21.0664 3.36324ZM15.8161 4.6523H12.6462V3.40668L15.8161 4.6523ZM11.3571 3.40668V4.6523H8.18717L11.3571 3.40668ZM2.93359 5.94136C2.5782 5.94136 2.28906 5.65223 2.28906 5.29683C2.28906 4.94144 2.5782 4.6523 2.93359 4.6523C3.28899 4.6523 3.57812 4.94144 3.57812 5.29683C3.57812 5.65223 3.28899 5.94136 2.93359 5.94136ZM11.3571 5.94136V7.23047H7.23369V5.94136H11.3571ZM14.7361 13.2195L16.7695 11.1861V15.2529L14.7361 13.2195ZM16.7695 9.36309L13.3689 12.7638C13.1171 13.0154 13.1171 13.4236 13.3689 13.6753L16.6433 16.9497L15.5284 17.6578L12.4573 14.5868C12.3315 14.4609 12.1665 14.398 12.0016 14.398C11.8367 14.398 11.6717 14.4609 11.5459 14.5868L8.4748 17.6579L7.35989 16.9498L10.6344 13.6753C10.8861 13.4236 10.8861 13.0155 10.6344 12.7638L7.23369 9.36314V8.51953H8.21316L11.5459 11.8522C11.7975 12.104 12.2056 12.1039 12.4574 11.8522L15.7901 8.51953H16.7695V9.36309ZM12.0016 19.8977L9.58971 18.3659L12.0016 15.954L14.4135 18.3659L12.0016 19.8977ZM7.23369 15.2529V11.1861L9.2671 13.2195L7.23369 15.2529ZM12.0016 10.485L10.0362 8.51953H13.9671L12.0016 10.485ZM16.7695 7.23047H12.6461V5.94136H16.7695V7.23047ZM21.0664 5.94136C20.711 5.94136 20.4219 5.65223 20.4219 5.29683C20.4219 4.94144 20.711 4.6523 21.0664 4.6523C21.4218 4.6523 21.7109 4.94144 21.7109 5.29683C21.7109 5.65223 21.4218 5.94136 21.0664 5.94136Z" fill="#fff"/>
</svg>