<svg xmlns="http://www.w3.org/2000/svg" width="24" height="24" viewBox="0 0 24 24" fill="none">
<path fill-rule="evenodd" clip-rule="evenodd" d="M16.5303 7.46969C16.7312 7.67056 16.8014 7.96769 16.7115 8.23719L14.7115 14.2372C14.6369 14.4611 14.4611 14.6369 14.2372 14.7115L8.23719 16.7115C7.96769 16.8014 7.67056 16.7312 7.46969 16.5303C7.26882 16.3295 7.19867 16.0324 7.28851 15.7628L9.28851 9.76285C9.36316 9.5389 9.5389 9.36316 9.76285 9.28851L15.7628 7.28851C16.0324 7.19867 16.3295 7.26882 16.5303 7.46969ZM10.5929 10.5929L9.18587 14.8142L13.4071 13.4071L14.8142 9.18587L10.5929 10.5929Z" fill="#fff"/>
<path fill-rule="evenodd" clip-rule="evenodd" d="M12 3.75C7.44365 3.75 3.75 7.44365 3.75 12C3.75 16.5563 7.44365 20.25 12 20.25C16.5563 20.25 20.25 16.5563 20.25 12C20.25 7.44365 16.5563 3.75 12 3.75ZM2.25 12C2.25 6.61522 6.61522 2.25 12 2.25C17.3848 2.25 21.75 6.61522 21.75 12C21.75 17.3848 17.3848 21.75 12 21.75C6.61522 21.75 2.25 17.3848 2.25 12Z" fill="#fff"/>
</svg>