<svg xmlns="http://www.w3.org/2000/svg" width="5px" height="5px" version="1.1" viewBox="0 0 500 752" >
 <g>
  <path d="m376 252.87c-32.656 0-63.973 12.973-87.066 36.062-23.09 23.094-36.062 54.41-36.062 87.066s12.973 63.977 36.062 87.066c23.094 23.094 54.41 36.066 87.066 36.066s63.977-12.973 87.066-36.066c23.094-23.09 36.066-54.41 36.066-87.066s-12.973-63.973-36.066-87.066c-23.09-23.09-54.41-36.062-87.066-36.062zm0 236.79c-30.145 0-59.051-11.973-80.367-33.289-21.316-21.316-33.289-50.227-33.289-80.371s11.973-59.051 33.289-80.367c21.316-21.316 50.223-33.289 80.367-33.289s59.055 11.973 80.371 33.289c21.316 21.316 33.289 50.223 33.289 80.367s-11.973 59.055-33.289 80.371-50.227 33.289-80.371 33.289z" fill="currentColor"/>
  <path d="m413.89 352.8-37.082 37.082-37.887-37.887h0.003906c-1.8789-1.6094-4.6836-1.5039-6.4297 0.24609-1.75 1.75-1.8594 4.5508-0.25 6.4297l41.156 41.156c1.8438 1.8359 4.8281 1.8359 6.6758 0l40.445-40.445c1.3359-1.8906 1.1133-4.4688-0.52734-6.1016-1.6445-1.6289-4.2266-1.8359-6.1055-0.48047z" fill="currentColor"/>
 </g>
</svg>