<svg xmlns="http://www.w3.org/2000/svg" width="24" height="24" viewBox="0 0 24 24" fill="none">
<path d="M19.0385 11.4264V8.11858C19.0385 4.23755 15.881 1.08008 12 1.08008C8.11896 1.08008 4.96149 4.23755 4.96149 8.11858V11.4264C4.13611 12.2904 3.68176 13.4167 3.68176 14.6025C3.68176 19.1892 7.41332 22.9207 12 22.9207C16.5867 22.9207 20.3182 19.1892 20.3182 14.6025C20.3182 13.4167 19.8639 12.2904 19.0385 11.4264ZM6.24122 8.11858C6.24122 4.94319 8.8246 2.3598 12 2.3598C15.1754 2.3598 17.7588 4.94319 17.7588 8.11858V10.4835C17.3554 10.2854 16.925 10.1511 16.479 10.0853V8.11858C16.479 5.64883 14.4697 3.63953 12 3.63953C9.53024 3.63953 7.52094 5.64883 7.52094 8.11858V10.0853C7.075 10.1511 6.64454 10.2854 6.24122 10.4835V8.11858ZM15.1993 8.11858V10.0382H8.80067V8.11858C8.80067 6.35447 10.2359 4.91926 12 4.91926C13.7641 4.91926 15.1993 6.35447 15.1993 8.11858ZM12 21.641C8.11896 21.641 4.96149 18.4836 4.96149 14.6025C4.96149 12.8221 6.42661 11.3179 8.16081 11.3179H15.8392C17.5734 11.3179 19.0385 12.8221 19.0385 14.6025C19.0385 18.4836 15.881 21.641 12 21.641Z" fill="currentColor"/>
<path d="M12 12.75C10.8369 12.75 9.89062 13.6963 9.89062 14.8594C9.89062 15.776 10.4785 16.5576 11.2969 16.8478V20.4844C11.2969 20.8727 11.6117 21.1875 12 21.1875C12.3883 21.1875 12.7031 20.8727 12.7031 20.4844V16.8478C13.5215 16.5576 14.1094 15.776 14.1094 14.8594C14.1094 13.6963 13.1631 12.75 12 12.75ZM12 15.5625C11.6123 15.5625 11.2969 15.2471 11.2969 14.8594C11.2969 14.4717 11.6123 14.1562 12 14.1562C12.3877 14.1562 12.7031 14.4717 12.7031 14.8594C12.7031 15.2471 12.3877 15.5625 12 15.5625Z" fill="currentColor"/>
</svg>