<svg _ngcontent-aet-c243="" width="22" height="22" viewBox="0 0 22 22" fill="none" xmlns="http://www.w3.org/2000/svg"><path _ngcontent-aet-c243="" d="M10.9996 0.714294C16.6799 0.714294 21.2853 5.31972 21.2853 11C21.2853 16.6803 16.6799 21.2857 10.9996 21.2857C5.3193 21.2857 0.713867 16.6803 0.713867 11C0.713867 5.31972 5.3193 0.714294 10.9996 0.714294ZM10.9996 2.00001C6.02901 2.00001 1.99958 6.02944 1.99958 11C1.99958 15.9706 6.02901 20 10.9996 20C15.9702 20 19.9996 15.9706 19.9996 11C19.9996 6.02944 15.9702 2.00001 10.9996 2.00001ZM10.9996 14.8572C11.2837 14.8572 11.5563 14.97 11.7572 15.171C11.9581 15.3719 12.071 15.6444 12.071 15.9286C12.071 16.2127 11.9581 16.4853 11.7572 16.6862C11.5563 16.8871 11.2837 17 10.9996 17C10.7154 17 10.4429 16.8871 10.242 16.6862C10.041 16.4853 9.92815 16.2127 9.92815 15.9286C9.92815 15.6444 10.041 15.3719 10.242 15.171C10.4429 14.97 10.7154 14.8572 10.9996 14.8572ZM10.9996 4.78572C12.6822 4.78572 14.2139 6.26429 14.2139 8.00001C14.2139 9.22658 13.8153 9.94915 12.8887 10.8337L12.7199 10.9914L12.545 11.1517C11.8542 11.7843 11.6424 12.116 11.6424 12.7143C11.6424 12.8848 11.5747 13.0483 11.4542 13.1689C11.3336 13.2894 11.1701 13.3572 10.9996 13.3572C10.8291 13.3572 10.6656 13.2894 10.545 13.1689C10.4245 13.0483 10.3567 12.8848 10.3567 12.7143C10.3567 11.7294 10.6979 11.1354 11.5079 10.3614L11.9964 9.90887C12.6907 9.24715 12.9282 8.80744 12.9282 8.00001C12.9282 6.98515 11.9819 6.07144 10.9996 6.07144C10.0173 6.07144 9.07101 6.98515 9.07101 8.00001C9.07101 8.17051 9.00328 8.33402 8.88272 8.45458C8.76216 8.57514 8.59865 8.64287 8.42815 8.64287C8.25766 8.64287 8.09414 8.57514 7.97358 8.45458C7.85303 8.33402 7.7853 8.17051 7.7853 8.00001C7.7853 6.26429 9.31701 4.78572 10.9996 4.78572Z" fill="#000"></path></svg>