<svg xmlns="http://www.w3.org/2000/svg" width="24" height="24" viewBox="0 0 24 24" fill="none">
<path fill-rule="evenodd" clip-rule="evenodd" d="M8.53033 12.4697C8.82322 12.7626 8.82322 13.2374 8.53033 13.5303L5.06066 17L8.53033 20.4697C8.82322 20.7626 8.82322 21.2374 8.53033 21.5303C8.23744 21.8232 7.76256 21.8232 7.46967 21.5303L3.46967 17.5303C3.17678 17.2374 3.17678 16.7626 3.46967 16.4697L7.46967 12.4697C7.76256 12.1768 8.23744 12.1768 8.53033 12.4697Z" fill="#fff"/>
<path fill-rule="evenodd" clip-rule="evenodd" d="M3.25 17C3.25 16.5858 3.58579 16.25 4 16.25H13C13.4142 16.25 13.75 16.5858 13.75 17C13.75 17.4142 13.4142 17.75 13 17.75H4C3.58579 17.75 3.25 17.4142 3.25 17Z" fill="#fff"/>
<path fill-rule="evenodd" clip-rule="evenodd" d="M15.4697 2.46967C15.7626 2.17678 16.2374 2.17678 16.5303 2.46967L20.5303 6.46967C20.8232 6.76256 20.8232 7.23744 20.5303 7.53033L16.5303 11.5303C16.2374 11.8232 15.7626 11.8232 15.4697 11.5303C15.1768 11.2374 15.1768 10.7626 15.4697 10.4697L18.9393 7L15.4697 3.53033C15.1768 3.23744 15.1768 2.76256 15.4697 2.46967Z" fill="#fff"/>
<path fill-rule="evenodd" clip-rule="evenodd" d="M9.25 7C9.25 6.58579 9.58579 6.25 10 6.25H20C20.4142 6.25 20.75 6.58579 20.75 7C20.75 7.41421 20.4142 7.75 20 7.75H10C9.58579 7.75 9.25 7.41421 9.25 7Z" fill="#fff"/>
</svg>