<svg width="100%" height="100%" viewBox="0 0 24 24" fill="#000" xmlns="http://www.w3.org/2000/svg" fit="" preserveAspectRatio="xMidYMid meet" focusable="false">
<path fill-rule="evenodd" clip-rule="evenodd" d="M3.25 6C3.25 5.58579 3.58579 5.25 4 5.25H13C13.4142 5.25 13.75 5.58579 13.75 6C13.75 6.41421 13.4142 6.75 13 6.75H4C3.58579 6.75 3.25 6.41421 3.25 6Z" fill="#000"></path>
<path fill-rule="evenodd" clip-rule="evenodd" d="M3.25 12C3.25 11.5858 3.58579 11.25 4 11.25H11C11.4142 11.25 11.75 11.5858 11.75 12C11.75 12.4142 11.4142 12.75 11 12.75H4C3.58579 12.75 3.25 12.4142 3.25 12Z" fill="#000"></path>
<path fill-rule="evenodd" clip-rule="evenodd" d="M3.25 18C3.25 17.5858 3.58579 17.25 4 17.25H11C11.4142 17.25 11.75 17.5858 11.75 18C11.75 18.4142 11.4142 18.75 11 18.75H4C3.58579 18.75 3.25 18.4142 3.25 18Z" fill="#000"></path>
<path fill-rule="evenodd" clip-rule="evenodd" d="M14.4697 14.4697C14.7626 14.1768 15.2374 14.1768 15.5303 14.4697L18 16.9393L20.4697 14.4697C20.7626 14.1768 21.2374 14.1768 21.5303 14.4697C21.8232 14.7626 21.8232 15.2374 21.5303 15.5303L18.5303 18.5303C18.2374 18.8232 17.7626 18.8232 17.4697 18.5303L14.4697 15.5303C14.1768 15.2374 14.1768 14.7626 14.4697 14.4697Z" fill="#000"></path>
<path fill-rule="evenodd" clip-rule="evenodd" d="M18 5.25C18.4142 5.25 18.75 5.58579 18.75 6V18C18.75 18.4142 18.4142 18.75 18 18.75C17.5858 18.75 17.25 18.4142 17.25 18V6C17.25 5.58579 17.5858 5.25 18 5.25Z" fill="#000"></path>
</svg>